[37m2026-07-17 14:15:29.330[39m[0m[0m	[32m[1mDEBUG[22m[39m[0m[0m	[37m[39m[0m[0m[1m[37m	Pochi[39m[22m[0m[0m	pochi v0.6.20
[37m2026-07-17 14:15:29.335[39m[0m[0m	[32m[1mDEBUG[22m[39m[0m[0m	[37mnative:7[39m[0m[0m[1m[37m	PochiConfigManager[39m[22m[0m[0m	add workspace config: /root/.pochi/config.jsonc
[37m2026-07-17 14:15:29.838[39m[0m[0m	[32m[1mDEBUG[22m[39m[0m[0m	[37m/$bunfs/pochi:532913[39m[0m[0m[1m[37m	loadAgents[39m[22m[0m[0m	Loaded 6 custom agents (6 valid, 0 invalid)
[37m2026-07-17 14:15:29.928[39m[0m[0m	[32m[1mDEBUG[22m[39m[0m[0m	[37m/$bunfs/pochi:532914[39m[0m[0m[1m[37m	loadSkills[39m[22m[0m[0m	Loaded 3 skills (3 valid, 0 invalid)
[37m2026-07-17 14:15:30.148[39m[0m[0m	[32m[1mDEBUG[22m[39m[0m[0m	[37m/$bunfs/pochi:419194[39m[0m[0m[1m[37m	MCPHub[39m[22m[0m[0m	MCP servers configuration changed via signal:
[37m2026-07-17 14:15:30.149[39m[0m[0m	[32m[1mDEBUG[22m[39m[0m[0m	[37m/$bunfs/pochi:419306[39m[0m[0m[1m[37m	MCPHub[39m[22m[0m[0m	Build MCPHub Status
[37m2026-07-17 14:15:30.291[39m[0m[0m	[32m[1mDEBUG[22m[39m[0m[0m	[37mnative:7[39m[0m[0m[1m[37m	Pochi[39m[22m[0m[0m	Starting task runner...
[37m2026-07-17 14:15:30.417[39m[0m[0m	[32m[1mDEBUG[22m[39m[0m[0m	[37m/$bunfs/pochi:490790[39m[0m[0m[1m[37m	generateTaskTitle[39m[22m[0m[0m	Generating task title, old: null, new: # System Instructions
[37m2026-07-17 14:15:44.243[39m[0m[0m	[32m[1mDEBUG[22m[39m[0m[0m	[37m/$bunfs/pochi:490790[39m[0m[0m[1m[37m	generateTaskTitle[39m[22m[0m[0m	Generating task title, old: null, new: You are a software tester assigned to verify a test case using the agent-browser.
[37m2026-07-17 14:15:57.920[39m[0m[0m	[32m[1mDEBUG[22m[39m[0m[0m	[37m/$bunfs/pochi:490790[39m[0m[0m[1m[37m	generateTaskTitle[39m[22m[0m[0m	Generating task title, old: You are a software tester assigned to verify a test case using the agent-browser., new: Verify products table sorting and pagination query strings using agent browser <thought>

[37m2026-07-17 14:16:03.166[39m[0m[0m	[32m[1mDEBUG[22m[39m[0m[0m	[37m/$bunfs/pochi:531688[39m[0m[0m[1m[37m	FileStateCache[39m[22m[0m[0m	withReadFileCache: path="/root/.pochi/config.jsonc" resolvedPath="/root/.pochi/config.jsonc" isVirtual=false cacheExists=true shouldCache=true startLine=undefined endLine=undefined
[37m2026-07-17 14:16:03.166[39m[0m[0m	[32m[1mDEBUG[22m[39m[0m[0m	[37m/$bunfs/pochi:531688[39m[0m[0m[1m[37m	FileStateCache[39m[22m[0m[0m	withReadFileCache: existingState=undefined
[37m2026-07-17 14:16:03.167[39m[0m[0m	[32m[1mDEBUG[22m[39m[0m[0m	[37m/$bunfs/pochi:531688[39m[0m[0m[1m[37m	FileStateCache[39m[22m[0m[0m	withReadFileCache: populating cache for "/root/.pochi/config.jsonc" mtime=1784297667332 contentLen=1079
[37m2026-07-17 14:16:10.584[39m[0m[0m	[32m[1mDEBUG[22m[39m[0m[0m	[37m/$bunfs/pochi:531541[39m[0m[0m[1m[37m	newTask[39m[22m[0m[0m	Browser stream webSocket connected.
[37m2026-07-17 14:16:16.373[39m[0m[0m	[32m[1mDEBUG[22m[39m[0m[0m	[37mnative:7[39m[0m[0m[1m[37m	MjpegToMp4[39m[22m[0m[0m	Saved frame 0: 1784297776.372
[37m2026-07-17 14:16:16.380[39m[0m[0m	[32m[1mDEBUG[22m[39m[0m[0m	[37mnative:7[39m[0m[0m[1m[37m	MjpegToMp4[39m[22m[0m[0m	Saved frame 1: 1784297776.379
[37m2026-07-17 14:16:16.414[39m[0m[0m	[32m[1mDEBUG[22m[39m[0m[0m	[37mnative:7[39m[0m[0m[1m[37m	MjpegToMp4[39m[22m[0m[0m	Saved frame 2: 1784297776.413
[37m2026-07-17 14:16:16.430[39m[0m[0m	[32m[1mDEBUG[22m[39m[0m[0m	[37mnative:7[39m[0m[0m[1m[37m	MjpegToMp4[39m[22m[0m[0m	Saved frame 3: 1784297776.427
[37m2026-07-17 14:16:16.436[39m[0m[0m	[32m[1mDEBUG[22m[39m[0m[0m	[37mnative:7[39m[0m[0m[1m[37m	MjpegToMp4[39m[22m[0m[0m	Saved frame 4: 1784297776.435
[37m2026-07-17 14:16:22.941[39m[0m[0m	[32m[1mDEBUG[22m[39m[0m[0m	[37mnative:7[39m[0m[0m[1m[37m	MjpegToMp4[39m[22m[0m[0m	Saved frame 5: 1784297782.94
[37m2026-07-17 14:16:22.956[39m[0m[0m	[32m[1mDEBUG[22m[39m[0m[0m	[37mnative:7[39m[0m[0m[1m[37m	MjpegToMp4[39m[22m[0m[0m	Saved frame 6: 1784297782.956
[37m2026-07-17 14:16:23.017[39m[0m[0m	[32m[1mDEBUG[22m[39m[0m[0m	[37mnative:7[39m[0m[0m[1m[37m	MjpegToMp4[39m[22m[0m[0m	Saved frame 7: 1784297783.016
[37m2026-07-17 14:16:42.875[39m[0m[0m	[31m[1mERROR[22m[39m[0m[0m	[37m/$bunfs/pochi:532388[39m[0m[0m[1m[37m	TaskRunner[39m[22m[0m[0m	Task is failed, trying to resend last message to resume it. [1mnull[22m
[37m2026-07-17 14:17:00.720[39m[0m[0m	[31m[1mERROR[22m[39m[0m[0m	[37m/$bunfs/pochi:532388[39m[0m[0m[1m[37m	TaskRunner[39m[22m[0m[0m	Task is failed, trying to resend last message to resume it. [1mnull[22m
[37m2026-07-17 14:17:16.743[39m[0m[0m	[31m[1mERROR[22m[39m[0m[0m	[37m/$bunfs/pochi:532388[39m[0m[0m[1m[37m	TaskRunner[39m[22m[0m[0m	Task is failed, trying to resend last message to resume it. [1mnull[22m
[37m2026-07-17 14:17:50.611[39m[0m[0m	[31m[1mERROR[22m[39m[0m[0m	[37m/$bunfs/pochi:532388[39m[0m[0m[1m[37m	TaskRunner[39m[22m[0m[0m	Task is failed, trying to resend last message to resume it. [1mnull[22m
[37m2026-07-17 14:17:50.613[39m[0m[0m	[32m[1mDEBUG[22m[39m[0m[0m	[37m/$bunfs/pochi:531641[39m[0m[0m[1m[37m	TaskRunner[39m[22m[0m[0m	Failed:

[97m[101m[1m AbortError [22m[49m[39m[0m[0m Task aborted: maximum number of retries reached (3)., 3, AbortError, 532053, 37, 532053, 37, /$bunfs/root/pochi[0m[0m
error stack:
  • [33mpochi[39m[0m[0m	throwIfReachedMaxRetries[0m[0m
	[37m/$bunfs/pochi:532053[39m[0m[0m
  • [33mpochi[39m[0m[0m	step[0m[0m
	[37m/$bunfs/pochi:532381[39m[0m[0m
  • [33mpochi[39m[0m[0m	async run[0m[0m
	[37m/$bunfs/pochi:532280[39m[0m[0m
  • [33mpochi[39m[0m[0m	async <anonymous>[0m[0m
	[37m/$bunfs/pochi:531641[39m[0m[0m
  • [33mpochi[39m[0m[0m	async executeToolCall2[0m[0m
	[37m/$bunfs/pochi:531838[39m[0m[0m
  • [33mpochi[39m[0m[0m	async executeToolCallItem[0m[0m
	[37m/$bunfs/pochi:532516[39m[0m[0m
  • [33mpochi[39m[0m[0m	async runToolCall[0m[0m
	[37m/$bunfs/pochi:532494[39m[0m[0m
  • [33mnative[39m[0m[0m	processTicksAndRejections[0m[0m
	[37mnative:7[39m[0m[0m[0m[0m
[37m2026-07-17 14:17:51.217[39m[0m[0m	[32m[1mDEBUG[22m[39m[0m[0m	[37m/$bunfs/pochi:112627[39m[0m[0m[1m[37m	MjpegToMp4[39m[22m[0m[0m	[ffmpeg] start: ffmpeg -safe 0 -f concat -i /tmp/pochi-mjpeg2mp4-8zszY8/frames.ffconcat -y -vcodec libx264 -filter:v scale=854:480:force_original_aspect_ratio=decrease,pad=854:480:(ow-iw)/2:(oh-ih)/2:color=black -pix_fmt yuv420p -movflags +faststart -preset veryfast -crf 23 -an -f mp4 /tmp/pochi-browser-agent-video-2f9a6c9e-3916-4b19-adad-0f0774736449.mp4
[37m2026-07-17 14:17:51.438[39m[0m[0m	[32m[1mDEBUG[22m[39m[0m[0m	[37m/$bunfs/pochi:112666[39m[0m[0m[1m[37m	MjpegToMp4[39m[22m[0m[0m	[ffmpeg] stderr: ffmpeg version 6.1.1-3ubuntu5 Copyright (c) 2000-2023 the FFmpeg developers
[37m2026-07-17 14:17:51.438[39m[0m[0m	[32m[1mDEBUG[22m[39m[0m[0m	[37m/$bunfs/pochi:112666[39m[0m[0m[1m[37m	MjpegToMp4[39m[22m[0m[0m	[ffmpeg] stderr:   built with gcc 13 (Ubuntu 13.2.0-23ubuntu3)
[37m2026-07-17 14:17:51.438[39m[0m[0m	[32m[1mDEBUG[22m[39m[0m[0m	[37m/$bunfs/pochi:112666[39m[0m[0m[1m[37m	MjpegToMp4[39m[22m[0m[0m	[ffmpeg] stderr:   configuration: --prefix=/usr --extra-version=3ubuntu5 --toolchain=hardened --libdir=/usr/lib/x86_64-linux-gnu --incdir=/usr/include/x86_64-linux-gnu --arch=amd64 --enable-gpl --disable-stripping --disable-omx --enable-gnutls --enable-libaom --enable-libass --enable-libbs2b --enable-libcaca --enable-libcdio --enable-libcodec2 --enable-libdav1d --enable-libflite --enable-libfontconfig --enable-libfreetype --enable-libfribidi --enable-libglslang --enable-libgme --enable-libgsm --enable-libharfbuzz --enable-libmp3lame --enable-libmysofa --enable-libopenjpeg --enable-libopenmpt --enable-libopus --enable-librubberband --enable-libshine --enable-libsnappy --enable-libsoxr --enable-libspeex --enable-libtheora --enable-libtwolame --enable-libvidstab --enable-libvorbis --enable-libvpx --enable-libwebp --enable-libx265 --enable-libxml2 --enable-libxvid --enable-libzimg --enable-openal --enable-opencl --enable-opengl --disable-sndio --enable-libvpl --disable-libmfx --enable-libdc1394 --enable-libdrm --enable-libiec61883 --enable-chromaprint --enable-frei0r --enable-ladspa --enable-libbluray --enable-libjack --enable-libpulse --enable-librabbitmq --enable-librist --enable-libsrt --enable-libssh --enable-libsvtav1 --enable-libx264 --enable-libzmq --enable-libzvbi --enable-lv2 --enable-sdl2 --enable-libplacebo --enable-librav1e --enable-pocketsphinx --enable-librsvg --enable-libjxl --enable-shared
[37m2026-07-17 14:17:51.438[39m[0m[0m	[32m[1mDEBUG[22m[39m[0m[0m	[37m/$bunfs/pochi:112666[39m[0m[0m[1m[37m	MjpegToMp4[39m[22m[0m[0m	[ffmpeg] stderr:   libavutil      58. 29.100 / 58. 29.100
[37m2026-07-17 14:17:51.438[39m[0m[0m	[32m[1mDEBUG[22m[39m[0m[0m	[37m/$bunfs/pochi:112666[39m[0m[0m[1m[37m	MjpegToMp4[39m[22m[0m[0m	[ffmpeg] stderr:   libavcodec     60. 31.102 / 60. 31.102
[37m2026-07-17 14:17:51.438[39m[0m[0m	[32m[1mDEBUG[22m[39m[0m[0m	[37m/$bunfs/pochi:112666[39m[0m[0m[1m[37m	MjpegToMp4[39m[22m[0m[0m	[ffmpeg] stderr:   libavformat    60. 16.100 / 60. 16.100
[37m2026-07-17 14:17:51.438[39m[0m[0m	[32m[1mDEBUG[22m[39m[0m[0m	[37m/$bunfs/pochi:112666[39m[0m[0m[1m[37m	MjpegToMp4[39m[22m[0m[0m	[ffmpeg] stderr:   libavdevice    60.  3.100 / 60.  3.100
[37m2026-07-17 14:17:51.439[39m[0m[0m	[32m[1mDEBUG[22m[39m[0m[0m	[37m/$bunfs/pochi:112666[39m[0m[0m[1m[37m	MjpegToMp4[39m[22m[0m[0m	[ffmpeg] stderr:   libavfilter     9. 12.100 /  9. 12.100
[37m2026-07-17 14:17:51.439[39m[0m[0m	[32m[1mDEBUG[22m[39m[0m[0m	[37m/$bunfs/pochi:112666[39m[0m[0m[1m[37m	MjpegToMp4[39m[22m[0m[0m	[ffmpeg] stderr:   libswscale      7.  5.100 /  7.  5.100
[37m2026-07-17 14:17:51.439[39m[0m[0m	[32m[1mDEBUG[22m[39m[0m[0m	[37m/$bunfs/pochi:112666[39m[0m[0m[1m[37m	MjpegToMp4[39m[22m[0m[0m	[ffmpeg] stderr:   libswresample   4. 12.100 /  4. 12.100
[37m2026-07-17 14:17:51.439[39m[0m[0m	[32m[1mDEBUG[22m[39m[0m[0m	[37m/$bunfs/pochi:112666[39m[0m[0m[1m[37m	MjpegToMp4[39m[22m[0m[0m	[ffmpeg] stderr:   libpostproc    57.  3.100 / 57.  3.100
[37m2026-07-17 14:17:51.439[39m[0m[0m	[32m[1mDEBUG[22m[39m[0m[0m	[37m/$bunfs/pochi:112666[39m[0m[0m[1m[37m	MjpegToMp4[39m[22m[0m[0m	[ffmpeg] stderr: Input #0, concat, from '/tmp/pochi-mjpeg2mp4-8zszY8/frames.ffconcat':
[37m2026-07-17 14:17:51.439[39m[0m[0m	[32m[1mDEBUG[22m[39m[0m[0m	[37m/$bunfs/pochi:112666[39m[0m[0m[1m[37m	MjpegToMp4[39m[22m[0m[0m	[ffmpeg] stderr:   Duration: N/A, start: 0.000000, bitrate: N/A
[37m2026-07-17 14:17:51.439[39m[0m[0m	[32m[1mDEBUG[22m[39m[0m[0m	[37m/$bunfs/pochi:112666[39m[0m[0m[1m[37m	MjpegToMp4[39m[22m[0m[0m	[ffmpeg] stderr:   Stream #0:0: Video: mjpeg (Baseline), yuvj420p(pc, bt470bg/unknown/unknown), 1280x720 [SAR 1:1 DAR 16:9], 25 fps, 25 tbr, 25 tbn
[37m2026-07-17 14:17:51.439[39m[0m[0m	[32m[1mDEBUG[22m[39m[0m[0m	[37m/$bunfs/pochi:112666[39m[0m[0m[1m[37m	MjpegToMp4[39m[22m[0m[0m	[ffmpeg] stderr: Stream mapping:
[37m2026-07-17 14:17:51.439[39m[0m[0m	[32m[1mDEBUG[22m[39m[0m[0m	[37m/$bunfs/pochi:112666[39m[0m[0m[1m[37m	MjpegToMp4[39m[22m[0m[0m	[ffmpeg] stderr:   Stream #0:0 -> #0:0 (mjpeg (native) -> h264 (libx264))
[37m2026-07-17 14:17:51.439[39m[0m[0m	[32m[1mDEBUG[22m[39m[0m[0m	[37m/$bunfs/pochi:112666[39m[0m[0m[1m[37m	MjpegToMp4[39m[22m[0m[0m	[ffmpeg] stderr: Press [q] to stop, [?] for help
[37m2026-07-17 14:17:51.443[39m[0m[0m	[32m[1mDEBUG[22m[39m[0m[0m	[37m/$bunfs/pochi:112666[39m[0m[0m[1m[37m	MjpegToMp4[39m[22m[0m[0m	[ffmpeg] stderr: [swscaler @ 0x64fb4afdc0c0] deprecated pixel format used, make sure you did set range correctly
[37m2026-07-17 14:17:51.461[39m[0m[0m	[32m[1mDEBUG[22m[39m[0m[0m	[37m/$bunfs/pochi:112666[39m[0m[0m[1m[37m	MjpegToMp4[39m[22m[0m[0m	[ffmpeg] stderr:     Last message repeated 3 times
[37m2026-07-17 14:17:51.461[39m[0m[0m	[32m[1mDEBUG[22m[39m[0m[0m	[37m/$bunfs/pochi:112666[39m[0m[0m[1m[37m	MjpegToMp4[39m[22m[0m[0m	[ffmpeg] stderr: [libx264 @ 0x64fb4aface00] using SAR=2560/2559
[37m2026-07-17 14:17:51.461[39m[0m[0m	[32m[1mDEBUG[22m[39m[0m[0m	[37m/$bunfs/pochi:112666[39m[0m[0m[1m[37m	MjpegToMp4[39m[22m[0m[0m	[ffmpeg] stderr: [libx264 @ 0x64fb4aface00] using cpu capabilities: MMX2 SSE2Fast SSSE3 SSE4.2 AVX FMA3 BMI2 AVX2 AVX512
[37m2026-07-17 14:17:51.464[39m[0m[0m	[32m[1mDEBUG[22m[39m[0m[0m	[37m/$bunfs/pochi:112666[39m[0m[0m[1m[37m	MjpegToMp4[39m[22m[0m[0m	[ffmpeg] stderr: [libx264 @ 0x64fb4aface00] profile High, level 3.0, 4:2:0, 8-bit
[37m2026-07-17 14:17:51.464[39m[0m[0m	[32m[1mDEBUG[22m[39m[0m[0m	[37m/$bunfs/pochi:112666[39m[0m[0m[1m[37m	MjpegToMp4[39m[22m[0m[0m	[ffmpeg] stderr: [libx264 @ 0x64fb4aface00] 264 - core 164 r3108 31e19f9 - H.264/MPEG-4 AVC codec - Copyleft 2003-2023 - http://www.videolan.org/x264.html - options: cabac=1 ref=1 deblock=1:0:0 analyse=0x3:0x113 me=hex subme=2 psy=1 psy_rd=1.00:0.00 mixed_ref=0 me_range=16 chroma_me=1 trellis=0 8x8dct=1 cqm=0 deadzone=21,11 fast_pskip=1 chroma_qp_offset=0 threads=15 lookahead_threads=3 sliced_threads=0 nr=0 decimate=1 interlaced=0 bluray_compat=0 constrained_intra=0 bframes=3 b_pyramid=2 b_adapt=1 b_bias=0 direct=1 weightb=1 open_gop=0 weightp=1 keyint=250 keyint_min=25 scenecut=40 intra_refresh=0 rc_lookahead=10 rc=crf mbtree=1 crf=23.0 qcomp=0.60 qpmin=0 qpmax=69 qpstep=4 ip_ratio=1.40 aq=1:1.00
[37m2026-07-17 14:17:51.464[39m[0m[0m	[32m[1mDEBUG[22m[39m[0m[0m	[37m/$bunfs/pochi:112666[39m[0m[0m[1m[37m	MjpegToMp4[39m[22m[0m[0m	[ffmpeg] stderr: Output #0, mp4, to '/tmp/pochi-browser-agent-video-2f9a6c9e-3916-4b19-adad-0f0774736449.mp4':
[37m2026-07-17 14:17:51.464[39m[0m[0m	[32m[1mDEBUG[22m[39m[0m[0m	[37m/$bunfs/pochi:112666[39m[0m[0m[1m[37m	MjpegToMp4[39m[22m[0m[0m	[ffmpeg] stderr:   Metadata:
[37m2026-07-17 14:17:51.464[39m[0m[0m	[32m[1mDEBUG[22m[39m[0m[0m	[37m/$bunfs/pochi:112666[39m[0m[0m[1m[37m	MjpegToMp4[39m[22m[0m[0m	[ffmpeg] stderr:     encoder         : Lavf60.16.100
[37m2026-07-17 14:17:51.464[39m[0m[0m	[32m[1mDEBUG[22m[39m[0m[0m	[37m/$bunfs/pochi:112666[39m[0m[0m[1m[37m	MjpegToMp4[39m[22m[0m[0m	[ffmpeg] stderr:   Stream #0:0: Video: h264 (avc1 / 0x31637661), yuv420p(tv, bt470bg/unknown/unknown, progressive), 854x480 [SAR 2560:2559 DAR 13664:7677], q=2-31, 25 fps, 12800 tbn
[37m2026-07-17 14:17:51.464[39m[0m[0m	[32m[1mDEBUG[22m[39m[0m[0m	[37m/$bunfs/pochi:112666[39m[0m[0m[1m[37m	MjpegToMp4[39m[22m[0m[0m	[ffmpeg] stderr:     Metadata:
[37m2026-07-17 14:17:51.464[39m[0m[0m	[32m[1mDEBUG[22m[39m[0m[0m	[37m/$bunfs/pochi:112666[39m[0m[0m[1m[37m	MjpegToMp4[39m[22m[0m[0m	[ffmpeg] stderr:       encoder         : Lavc60.31.102 libx264
[37m2026-07-17 14:17:51.464[39m[0m[0m	[32m[1mDEBUG[22m[39m[0m[0m	[37m/$bunfs/pochi:112666[39m[0m[0m[1m[37m	MjpegToMp4[39m[22m[0m[0m	[ffmpeg] stderr:     Side data:
[37m2026-07-17 14:17:51.464[39m[0m[0m	[32m[1mDEBUG[22m[39m[0m[0m	[37m/$bunfs/pochi:112666[39m[0m[0m[1m[37m	MjpegToMp4[39m[22m[0m[0m	[ffmpeg] stderr:       cpb: bitrate max/min/avg: 0/0/0 buffer size: 0 vbv_delay: N/A
[37m2026-07-17 14:17:51.465[39m[0m[0m	[32m[1mDEBUG[22m[39m[0m[0m	[37m/$bunfs/pochi:112666[39m[0m[0m[1m[37m	MjpegToMp4[39m[22m[0m[0m	[ffmpeg] stderr: frame=    0 fps=0.0 q=0.0 size=       0kB time=N/A bitrate=N/A speed=N/A    
[37m2026-07-17 14:17:52.017[39m[0m[0m	[32m[1mDEBUG[22m[39m[0m[0m	[37m/$bunfs/pochi:112666[39m[0m[0m[1m[37m	MjpegToMp4[39m[22m[0m[0m	[ffmpeg] stderr: frame=  136 fps=0.0 q=28.0 size=       0kB time=00:00:05.36 bitrate=   0.1kbits/s dup=159 drop=0 speed=9.31x    
[37m2026-07-17 14:17:52.122[39m[0m[0m	[32m[1mDEBUG[22m[39m[0m[0m	[37m/$bunfs/pochi:112666[39m[0m[0m[1m[37m	MjpegToMp4[39m[22m[0m[0m	[ffmpeg] stderr: [mp4 @ 0x64fb4afaab40] Starting second pass: moving the moov atom to the beginning of the file
[37m2026-07-17 14:17:52.122[39m[0m[0m	[32m[1mDEBUG[22m[39m[0m[0m	[37m/$bunfs/pochi:112666[39m[0m[0m[1m[37m	MjpegToMp4[39m[22m[0m[0m	[ffmpeg] stderr: [out#0/mp4 @ 0x64fb4afab340] video:35kB audio:0kB subtitle:0kB other streams:0kB global headers:0kB muxing overhead: 8.772801%
[37m2026-07-17 14:17:52.122[39m[0m[0m	[32m[1mDEBUG[22m[39m[0m[0m	[37m/$bunfs/pochi:112666[39m[0m[0m[1m[37m	MjpegToMp4[39m[22m[0m[0m	[ffmpeg] stderr: frame=  192 fps=0.0 q=-1.0 Lsize=      38kB time=00:00:07.56 bitrate=  41.7kbits/s dup=183 drop=0 speed=11.1x    
[37m2026-07-17 14:17:52.124[39m[0m[0m	[32m[1mDEBUG[22m[39m[0m[0m	[37m/$bunfs/pochi:112666[39m[0m[0m[1m[37m	MjpegToMp4[39m[22m[0m[0m	[ffmpeg] stderr: [libx264 @ 0x64fb4aface00] frame I:1     Avg QP:16.71  size: 12941
[37m2026-07-17 14:17:52.124[39m[0m[0m	[32m[1mDEBUG[22m[39m[0m[0m	[37m/$bunfs/pochi:112666[39m[0m[0m[1m[37m	MjpegToMp4[39m[22m[0m[0m	[ffmpeg] stderr: [libx264 @ 0x64fb4aface00] frame P:48    Avg QP:11.77  size:   390
[37m2026-07-17 14:17:52.124[39m[0m[0m	[32m[1mDEBUG[22m[39m[0m[0m	[37m/$bunfs/pochi:112666[39m[0m[0m[1m[37m	MjpegToMp4[39m[22m[0m[0m	[ffmpeg] stderr: [libx264 @ 0x64fb4aface00] frame B:143   Avg QP:12.69  size:    27
[37m2026-07-17 14:17:52.124[39m[0m[0m	[32m[1mDEBUG[22m[39m[0m[0m	[37m/$bunfs/pochi:112666[39m[0m[0m[1m[37m	MjpegToMp4[39m[22m[0m[0m	[ffmpeg] stderr: [libx264 @ 0x64fb4aface00] consecutive B-frames:  0.5%  0.0%  1.6% 97.9%
[37m2026-07-17 14:17:52.124[39m[0m[0m	[32m[1mDEBUG[22m[39m[0m[0m	[37m/$bunfs/pochi:112666[39m[0m[0m[1m[37m	MjpegToMp4[39m[22m[0m[0m	[ffmpeg] stderr: [libx264 @ 0x64fb4aface00] mb I  I16..4: 79.4%  1.0% 19.6%
[37m2026-07-17 14:17:52.124[39m[0m[0m	[32m[1mDEBUG[22m[39m[0m[0m	[37m/$bunfs/pochi:112666[39m[0m[0m[1m[37m	MjpegToMp4[39m[22m[0m[0m	[ffmpeg] stderr: [libx264 @ 0x64fb4aface00] mb P  I16..4:  0.2%  0.0%  0.1%  P16..4:  0.5%  0.2%  0.2%  0.0%  0.0%    skip:98.8%
[37m2026-07-17 14:17:52.124[39m[0m[0m	[32m[1mDEBUG[22m[39m[0m[0m	[37m/$bunfs/pochi:112666[39m[0m[0m[1m[37m	MjpegToMp4[39m[22m[0m[0m	[ffmpeg] stderr: [libx264 @ 0x64fb4aface00] mb B  I16..4:  0.0%  0.0%  0.0%  B16..8:  0.4%  0.0%  0.0%  direct: 0.0%  skip:99.6%  L0:35.1% L1:64.8% BI: 0.1%
[37m2026-07-17 14:17:52.124[39m[0m[0m	[32m[1mDEBUG[22m[39m[0m[0m	[37m/$bunfs/pochi:112666[39m[0m[0m[1m[37m	MjpegToMp4[39m[22m[0m[0m	[ffmpeg] stderr: [libx264 @ 0x64fb4aface00] 8x8 transform intra:1.2% inter:7.7%
[37m2026-07-17 14:17:52.124[39m[0m[0m	[32m[1mDEBUG[22m[39m[0m[0m	[37m/$bunfs/pochi:112666[39m[0m[0m[1m[37m	MjpegToMp4[39m[22m[0m[0m	[ffmpeg] stderr: [libx264 @ 0x64fb4aface00] coded y,uvDC,uvAC intra: 15.0% 10.4% 10.3% inter: 0.1% 0.0% 0.0%
[37m2026-07-17 14:17:52.124[39m[0m[0m	[32m[1mDEBUG[22m[39m[0m[0m	[37m/$bunfs/pochi:112666[39m[0m[0m[1m[37m	MjpegToMp4[39m[22m[0m[0m	[ffmpeg] stderr: [libx264 @ 0x64fb4aface00] i16 v,h,dc,p: 51% 45%  4%  0%
[37m2026-07-17 14:17:52.124[39m[0m[0m	[32m[1mDEBUG[22m[39m[0m[0m	[37m/$bunfs/pochi:112666[39m[0m[0m[1m[37m	MjpegToMp4[39m[22m[0m[0m	[ffmpeg] stderr: [libx264 @ 0x64fb4aface00] i8 v,h,dc,ddl,ddr,vr,hd,vl,hu: 30% 38% 28%  0%  0%  0%  2%  0%  2%
[37m2026-07-17 14:17:52.124[39m[0m[0m	[32m[1mDEBUG[22m[39m[0m[0m	[37m/$bunfs/pochi:112666[39m[0m[0m[1m[37m	MjpegToMp4[39m[22m[0m[0m	[ffmpeg] stderr: [libx264 @ 0x64fb4aface00] i4 v,h,dc,ddl,ddr,vr,hd,vl,hu: 34% 39% 12%  2%  2%  2%  4%  2%  4%
[37m2026-07-17 14:17:52.124[39m[0m[0m	[32m[1mDEBUG[22m[39m[0m[0m	[37m/$bunfs/pochi:112666[39m[0m[0m[1m[37m	MjpegToMp4[39m[22m[0m[0m	[ffmpeg] stderr: [libx264 @ 0x64fb4aface00] i8c dc,h,v,p: 96%  1%  4%  0%
[37m2026-07-17 14:17:52.124[39m[0m[0m	[32m[1mDEBUG[22m[39m[0m[0m	[37m/$bunfs/pochi:112666[39m[0m[0m[1m[37m	MjpegToMp4[39m[22m[0m[0m	[ffmpeg] stderr: [libx264 @ 0x64fb4aface00] Weighted P-Frames: Y:0.0% UV:0.0%
[37m2026-07-17 14:17:52.124[39m[0m[0m	[32m[1mDEBUG[22m[39m[0m[0m	[37m/$bunfs/pochi:112666[39m[0m[0m[1m[37m	MjpegToMp4[39m[22m[0m[0m	[ffmpeg] stderr: [libx264 @ 0x64fb4aface00] kb/s:37.03
[37m2026-07-17 14:17:52.234[39m[0m[0m	[32m[1mDEBUG[22m[39m[0m[0m	[37m/$bunfs/pochi:112666[39m[0m[0m[1m[37m	MjpegToMp4[39m[22m[0m[0m	[ffmpeg] stderr: 
[37m2026-07-17 14:17:52.235[39m[0m[0m	[32m[1mDEBUG[22m[39m[0m[0m	[37mevents:98[39m[0m[0m[1m[37m	MjpegToMp4[39m[22m[0m[0m	[ffmpeg] end
[37m2026-07-17 14:17:54.493[39m[0m[0m	[32m[1mDEBUG[22m[39m[0m[0m	[37m/$bunfs/pochi:490790[39m[0m[0m[1m[37m	generateTaskTitle[39m[22m[0m[0m	Generating task title, old: # System Instructions, new: Verify products table sorting and pagination functionality
[37m2026-07-17 14:17:59.309[39m[0m[0m	[32m[1mDEBUG[22m[39m[0m[0m	[37m/$bunfs/pochi:490790[39m[0m[0m[1m[37m	generateTaskTitle[39m[22m[0m[0m	Generating task title, old: null, new: You are a software tester assigned to verify a test case using the agent-browser.
[37m2026-07-17 14:18:11.057[39m[0m[0m	[32m[1mDEBUG[22m[39m[0m[0m	[37m/$bunfs/pochi:490790[39m[0m[0m[1m[37m	generateTaskTitle[39m[22m[0m[0m	Generating task title, old: You are a software tester assigned to verify a test case using the agent-browser., new: Verify products table sorting and pagination functionality
[37m2026-07-17 14:18:20.641[39m[0m[0m	[32m[1mDEBUG[22m[39m[0m[0m	[37m/$bunfs/pochi:531541[39m[0m[0m[1m[37m	newTask[39m[22m[0m[0m	Browser stream webSocket connected.
[37m2026-07-17 14:18:20.665[39m[0m[0m	[32m[1mDEBUG[22m[39m[0m[0m	[37mnative:7[39m[0m[0m[1m[37m	MjpegToMp4[39m[22m[0m[0m	Saved frame 0: 1784297900.664
[37m2026-07-17 14:18:22.271[39m[0m[0m	[32m[1mDEBUG[22m[39m[0m[0m	[37mnative:7[39m[0m[0m[1m[37m	MjpegToMp4[39m[22m[0m[0m	Saved frame 1: 1784297902.27
[37m2026-07-17 14:18:22.283[39m[0m[0m	[32m[1mDEBUG[22m[39m[0m[0m	[37mnative:7[39m[0m[0m[1m[37m	MjpegToMp4[39m[22m[0m[0m	Saved frame 2: 1784297902.282
[37m2026-07-17 14:18:22.312[39m[0m[0m	[32m[1mDEBUG[22m[39m[0m[0m	[37mnative:7[39m[0m[0m[1m[37m	MjpegToMp4[39m[22m[0m[0m	Saved frame 3: 1784297902.311
[37m2026-07-17 14:18:22.323[39m[0m[0m	[32m[1mDEBUG[22m[39m[0m[0m	[37mnative:7[39m[0m[0m[1m[37m	MjpegToMp4[39m[22m[0m[0m	Saved frame 4: 1784297902.322
[37m2026-07-17 14:18:22.328[39m[0m[0m	[32m[1mDEBUG[22m[39m[0m[0m	[37mnative:7[39m[0m[0m[1m[37m	MjpegToMp4[39m[22m[0m[0m	Saved frame 5: 1784297902.328
[37m2026-07-17 14:18:22.349[39m[0m[0m	[32m[1mDEBUG[22m[39m[0m[0m	[37mnative:7[39m[0m[0m[1m[37m	MjpegToMp4[39m[22m[0m[0m	Saved frame 6: 1784297902.348
[37m2026-07-17 14:18:22.365[39m[0m[0m	[32m[1mDEBUG[22m[39m[0m[0m	[37mnative:7[39m[0m[0m[1m[37m	MjpegToMp4[39m[22m[0m[0m	Saved frame 7: 1784297902.365
[37m2026-07-17 14:18:22.419[39m[0m[0m	[32m[1mDEBUG[22m[39m[0m[0m	[37mnative:7[39m[0m[0m[1m[37m	MjpegToMp4[39m[22m[0m[0m	Saved frame 8: 1784297902.418
[37m2026-07-17 14:18:22.426[39m[0m[0m	[32m[1mDEBUG[22m[39m[0m[0m	[37mnative:7[39m[0m[0m[1m[37m	MjpegToMp4[39m[22m[0m[0m	Saved frame 9: 1784297902.426
[37m2026-07-17 14:18:22.431[39m[0m[0m	[32m[1mDEBUG[22m[39m[0m[0m	[37mnative:7[39m[0m[0m[1m[37m	MjpegToMp4[39m[22m[0m[0m	Saved frame 10: 1784297902.431
[37m2026-07-17 14:18:22.451[39m[0m[0m	[32m[1mDEBUG[22m[39m[0m[0m	[37mnative:7[39m[0m[0m[1m[37m	MjpegToMp4[39m[22m[0m[0m	Saved frame 11: 1784297902.45
[37m2026-07-17 14:18:22.513[39m[0m[0m	[32m[1mDEBUG[22m[39m[0m[0m	[37mnative:7[39m[0m[0m[1m[37m	MjpegToMp4[39m[22m[0m[0m	Saved frame 12: 1784297902.513
[37m2026-07-17 14:18:22.517[39m[0m[0m	[32m[1mDEBUG[22m[39m[0m[0m	[37mnative:7[39m[0m[0m[1m[37m	MjpegToMp4[39m[22m[0m[0m	Saved frame 13: 1784297902.516
[37m2026-07-17 14:18:22.527[39m[0m[0m	[32m[1mDEBUG[22m[39m[0m[0m	[37mnative:7[39m[0m[0m[1m[37m	MjpegToMp4[39m[22m[0m[0m	Saved frame 14: 1784297902.526
[37m2026-07-17 14:18:22.534[39m[0m[0m	[32m[1mDEBUG[22m[39m[0m[0m	[37mnative:7[39m[0m[0m[1m[37m	MjpegToMp4[39m[22m[0m[0m	Saved frame 15: 1784297902.533
[37m2026-07-17 14:18:22.548[39m[0m[0m	[32m[1mDEBUG[22m[39m[0m[0m	[37mnative:7[39m[0m[0m[1m[37m	MjpegToMp4[39m[22m[0m[0m	Saved frame 16: 1784297902.547
[37m2026-07-17 14:18:22.560[39m[0m[0m	[32m[1mDEBUG[22m[39m[0m[0m	[37mnative:7[39m[0m[0m[1m[37m	MjpegToMp4[39m[22m[0m[0m	Saved frame 17: 1784297902.56
[37m2026-07-17 14:18:22.615[39m[0m[0m	[32m[1mDEBUG[22m[39m[0m[0m	[37mnative:7[39m[0m[0m[1m[37m	MjpegToMp4[39m[22m[0m[0m	Saved frame 18: 1784297902.614
[37m2026-07-17 14:18:25.827[39m[0m[0m	[32m[1mDEBUG[22m[39m[0m[0m	[37mnative:7[39m[0m[0m[1m[37m	MjpegToMp4[39m[22m[0m[0m	Saved frame 19: 1784297905.812
[37m2026-07-17 14:18:26.143[39m[0m[0m	[32m[1mDEBUG[22m[39m[0m[0m	[37mnative:7[39m[0m[0m[1m[37m	MjpegToMp4[39m[22m[0m[0m	Saved frame 20: 1784297906.142
[37m2026-07-17 14:18:26.224[39m[0m[0m	[32m[1mDEBUG[22m[39m[0m[0m	[37mnative:7[39m[0m[0m[1m[37m	MjpegToMp4[39m[22m[0m[0m	Saved frame 21: 1784297906.224
[37m2026-07-17 14:18:26.231[39m[0m[0m	[32m[1mDEBUG[22m[39m[0m[0m	[37mnative:7[39m[0m[0m[1m[37m	MjpegToMp4[39m[22m[0m[0m	Saved frame 22: 1784297906.231
[37m2026-07-17 14:18:26.245[39m[0m[0m	[32m[1mDEBUG[22m[39m[0m[0m	[37mnative:7[39m[0m[0m[1m[37m	MjpegToMp4[39m[22m[0m[0m	Saved frame 23: 1784297906.245
[37m2026-07-17 14:18:32.641[39m[0m[0m	[32m[1mDEBUG[22m[39m[0m[0m	[37mnative:7[39m[0m[0m[1m[37m	MjpegToMp4[39m[22m[0m[0m	Saved frame 24: 1784297912.641
[37m2026-07-17 14:18:32.644[39m[0m[0m	[32m[1mDEBUG[22m[39m[0m[0m	[37mnative:7[39m[0m[0m[1m[37m	MjpegToMp4[39m[22m[0m[0m	Saved frame 25: 1784297912.644
[37m2026-07-17 14:18:32.719[39m[0m[0m	[32m[1mDEBUG[22m[39m[0m[0m	[37mnative:7[39m[0m[0m[1m[37m	MjpegToMp4[39m[22m[0m[0m	Saved frame 26: 1784297912.718
[37m2026-07-17 14:18:45.011[39m[0m[0m	[32m[1mDEBUG[22m[39m[0m[0m	[37mnative:7[39m[0m[0m[1m[37m	MjpegToMp4[39m[22m[0m[0m	Saved frame 27: 1784297924.937
[37m2026-07-17 14:18:45.020[39m[0m[0m	[32m[1mDEBUG[22m[39m[0m[0m	[37mnative:7[39m[0m[0m[1m[37m	MjpegToMp4[39m[22m[0m[0m	Saved frame 28: 1784297925.02
[37m2026-07-17 14:18:47.839[39m[0m[0m	[32m[1mDEBUG[22m[39m[0m[0m	[37mnative:7[39m[0m[0m[1m[37m	MjpegToMp4[39m[22m[0m[0m	Saved frame 29: 1784297927.838
[37m2026-07-17 14:18:47.860[39m[0m[0m	[32m[1mDEBUG[22m[39m[0m[0m	[37mnative:7[39m[0m[0m[1m[37m	MjpegToMp4[39m[22m[0m[0m	Saved frame 30: 1784297927.86
[37m2026-07-17 14:18:47.916[39m[0m[0m	[32m[1mDEBUG[22m[39m[0m[0m	[37mnative:7[39m[0m[0m[1m[37m	MjpegToMp4[39m[22m[0m[0m	Saved frame 31: 1784297927.916
[37m2026-07-17 14:18:47.921[39m[0m[0m	[32m[1mDEBUG[22m[39m[0m[0m	[37mnative:7[39m[0m[0m[1m[37m	MjpegToMp4[39m[22m[0m[0m	Saved frame 32: 1784297927.921
[37m2026-07-17 14:18:47.933[39m[0m[0m	[32m[1mDEBUG[22m[39m[0m[0m	[37mnative:7[39m[0m[0m[1m[37m	MjpegToMp4[39m[22m[0m[0m	Saved frame 33: 1784297927.932
[37m2026-07-17 14:18:47.942[39m[0m[0m	[32m[1mDEBUG[22m[39m[0m[0m	[37mnative:7[39m[0m[0m[1m[37m	MjpegToMp4[39m[22m[0m[0m	Saved frame 34: 1784297927.942
[37m2026-07-17 14:18:48.017[39m[0m[0m	[32m[1mDEBUG[22m[39m[0m[0m	[37mnative:7[39m[0m[0m[1m[37m	MjpegToMp4[39m[22m[0m[0m	Saved frame 35: 1784297928.016
[37m2026-07-17 14:18:48.029[39m[0m[0m	[32m[1mDEBUG[22m[39m[0m[0m	[37mnative:7[39m[0m[0m[1m[37m	MjpegToMp4[39m[22m[0m[0m	Saved frame 36: 1784297928.028
[37m2026-07-17 14:18:48.034[39m[0m[0m	[32m[1mDEBUG[22m[39m[0m[0m	[37mnative:7[39m[0m[0m[1m[37m	MjpegToMp4[39m[22m[0m[0m	Saved frame 37: 1784297928.033
[37m2026-07-17 14:18:48.044[39m[0m[0m	[32m[1mDEBUG[22m[39m[0m[0m	[37mnative:7[39m[0m[0m[1m[37m	MjpegToMp4[39m[22m[0m[0m	Saved frame 38: 1784297928.044
[37m2026-07-17 14:18:48.060[39m[0m[0m	[32m[1mDEBUG[22m[39m[0m[0m	[37mnative:7[39m[0m[0m[1m[37m	MjpegToMp4[39m[22m[0m[0m	Saved frame 39: 1784297928.06
[37m2026-07-17 14:18:48.119[39m[0m[0m	[32m[1mDEBUG[22m[39m[0m[0m	[37mnative:7[39m[0m[0m[1m[37m	MjpegToMp4[39m[22m[0m[0m	Saved frame 40: 1784297928.118
[37m2026-07-17 14:18:48.128[39m[0m[0m	[32m[1mDEBUG[22m[39m[0m[0m	[37mnative:7[39m[0m[0m[1m[37m	MjpegToMp4[39m[22m[0m[0m	Saved frame 41: 1784297928.127
[37m2026-07-17 14:18:48.134[39m[0m[0m	[32m[1mDEBUG[22m[39m[0m[0m	[37mnative:7[39m[0m[0m[1m[37m	MjpegToMp4[39m[22m[0m[0m	Saved frame 42: 1784297928.133
[37m2026-07-17 14:18:48.714[39m[0m[0m	[32m[1mDEBUG[22m[39m[0m[0m	[37mnative:7[39m[0m[0m[1m[37m	MjpegToMp4[39m[22m[0m[0m	Saved frame 43: 1784297928.712
[37m2026-07-17 14:18:48.934[39m[0m[0m	[32m[1mDEBUG[22m[39m[0m[0m	[37mnative:7[39m[0m[0m[1m[37m	MjpegToMp4[39m[22m[0m[0m	Saved frame 44: 1784297928.933
[37m2026-07-17 14:18:49.012[39m[0m[0m	[32m[1mDEBUG[22m[39m[0m[0m	[37mnative:7[39m[0m[0m[1m[37m	MjpegToMp4[39m[22m[0m[0m	Saved frame 45: 1784297929.011
[37m2026-07-17 14:18:49.027[39m[0m[0m	[32m[1mDEBUG[22m[39m[0m[0m	[37mnative:7[39m[0m[0m[1m[37m	MjpegToMp4[39m[22m[0m[0m	Saved frame 46: 1784297929.027
[37m2026-07-17 14:18:57.985[39m[0m[0m	[32m[1mDEBUG[22m[39m[0m[0m	[37m/$bunfs/pochi:532496[39m[0m[0m[1m[37m	tool-result-persistence[39m[22m[0m[0m	Persisted field "output" for executeCommand(db9nmTeTAwzMHNNC): 57200 chars -> /root/.pochi/tasks/b84c28e4-08e5-4419-bb08-4f888dfd1016/tool-results/executeCommand-db9nmTeTAwzMHNNC-output.log
[37m2026-07-17 14:19:01.144[39m[0m[0m	[32m[1mDEBUG[22m[39m[0m[0m	[37m/$bunfs/pochi:531688[39m[0m[0m[1m[37m	FileStateCache[39m[22m[0m[0m	withReadFileCache: path="/root/.pochi/tasks/b84c28e4-08e5-4419-bb08-4f888dfd1016/tool-results/executeCommand-db9nmTeTAwzMHNNC-output.log" resolvedPath="/root/.pochi/tasks/b84c28e4-08e5-4419-bb08-4f888dfd1016/tool-results/executeCommand-db9nmTeTAwzMHNNC-output.log" isVirtual=false cacheExists=true shouldCache=true startLine=undefined endLine=undefined
[37m2026-07-17 14:19:01.144[39m[0m[0m	[32m[1mDEBUG[22m[39m[0m[0m	[37m/$bunfs/pochi:531688[39m[0m[0m[1m[37m	FileStateCache[39m[22m[0m[0m	withReadFileCache: existingState=undefined
[37m2026-07-17 14:19:01.146[39m[0m[0m	[32m[1mDEBUG[22m[39m[0m[0m	[37m/$bunfs/pochi:531688[39m[0m[0m[1m[37m	FileStateCache[39m[22m[0m[0m	withReadFileCache: populating cache for "/root/.pochi/tasks/b84c28e4-08e5-4419-bb08-4f888dfd1016/tool-results/executeCommand-db9nmTeTAwzMHNNC-output.log" mtime=1784297937983 contentLen=30000
[37m2026-07-17 14:19:17.284[39m[0m[0m	[32m[1mDEBUG[22m[39m[0m[0m	[37m/$bunfs/pochi:112627[39m[0m[0m[1m[37m	MjpegToMp4[39m[22m[0m[0m	[ffmpeg] start: ffmpeg -safe 0 -f concat -i /tmp/pochi-mjpeg2mp4-cRjFmw/frames.ffconcat -y -vcodec libx264 -filter:v scale=854:480:force_original_aspect_ratio=decrease,pad=854:480:(ow-iw)/2:(oh-ih)/2:color=black -pix_fmt yuv420p -movflags +faststart -preset veryfast -crf 23 -an -f mp4 /tmp/pochi-browser-agent-video-b84c28e4-08e5-4419-bb08-4f888dfd1016.mp4
[37m2026-07-17 14:19:17.333[39m[0m[0m	[32m[1mDEBUG[22m[39m[0m[0m	[37m/$bunfs/pochi:112666[39m[0m[0m[1m[37m	MjpegToMp4[39m[22m[0m[0m	[ffmpeg] stderr: ffmpeg version 6.1.1-3ubuntu5 Copyright (c) 2000-2023 the FFmpeg developers
[37m2026-07-17 14:19:17.333[39m[0m[0m	[32m[1mDEBUG[22m[39m[0m[0m	[37m/$bunfs/pochi:112666[39m[0m[0m[1m[37m	MjpegToMp4[39m[22m[0m[0m	[ffmpeg] stderr:   built with gcc 13 (Ubuntu 13.2.0-23ubuntu3)
[37m2026-07-17 14:19:17.333[39m[0m[0m	[32m[1mDEBUG[22m[39m[0m[0m	[37m/$bunfs/pochi:112666[39m[0m[0m[1m[37m	MjpegToMp4[39m[22m[0m[0m	[ffmpeg] stderr:   configuration: --prefix=/usr --extra-version=3ubuntu5 --toolchain=hardened --libdir=/usr/lib/x86_64-linux-gnu --incdir=/usr/include/x86_64-linux-gnu --arch=amd64 --enable-gpl --disable-stripping --disable-omx --enable-gnutls --enable-libaom --enable-libass --enable-libbs2b --enable-libcaca --enable-libcdio --enable-libcodec2 --enable-libdav1d --enable-libflite --enable-libfontconfig --enable-libfreetype --enable-libfribidi --enable-libglslang --enable-libgme --enable-libgsm --enable-libharfbuzz --enable-libmp3lame --enable-libmysofa --enable-libopenjpeg --enable-libopenmpt --enable-libopus --enable-librubberband --enable-libshine --enable-libsnappy --enable-libsoxr --enable-libspeex --enable-libtheora --enable-libtwolame --enable-libvidstab --enable-libvorbis --enable-libvpx --enable-libwebp --enable-libx265 --enable-libxml2 --enable-libxvid --enable-libzimg --enable-openal --enable-opencl --enable-opengl --disable-sndio --enable-libvpl --disable-libmfx --enable-libdc1394 --enable-libdrm --enable-libiec61883 --enable-chromaprint --enable-frei0r --enable-ladspa --enable-libbluray --enable-libjack --enable-libpulse --enable-librabbitmq --enable-librist --enable-libsrt --enable-libssh --enable-libsvtav1 --enable-libx264 --enable-libzmq --enable-libzvbi --enable-lv2 --enable-sdl2 --enable-libplacebo --enable-librav1e --enable-pocketsphinx --enable-librsvg --enable-libjxl --enable-shared
[37m2026-07-17 14:19:17.333[39m[0m[0m	[32m[1mDEBUG[22m[39m[0m[0m	[37m/$bunfs/pochi:112666[39m[0m[0m[1m[37m	MjpegToMp4[39m[22m[0m[0m	[ffmpeg] stderr:   libavutil      58. 29.100 / 58. 29.100
[37m2026-07-17 14:19:17.333[39m[0m[0m	[32m[1mDEBUG[22m[39m[0m[0m	[37m/$bunfs/pochi:112666[39m[0m[0m[1m[37m	MjpegToMp4[39m[22m[0m[0m	[ffmpeg] stderr:   libavcodec     60. 31.102 / 60. 31.102
[37m2026-07-17 14:19:17.333[39m[0m[0m	[32m[1mDEBUG[22m[39m[0m[0m	[37m/$bunfs/pochi:112666[39m[0m[0m[1m[37m	MjpegToMp4[39m[22m[0m[0m	[ffmpeg] stderr:   libavformat    60. 16.100 / 60. 16.100
[37m2026-07-17 14:19:17.333[39m[0m[0m	[32m[1mDEBUG[22m[39m[0m[0m	[37m/$bunfs/pochi:112666[39m[0m[0m[1m[37m	MjpegToMp4[39m[22m[0m[0m	[ffmpeg] stderr:   libavdevice    60.  3.100 / 60.  3.100
[37m2026-07-17 14:19:17.337[39m[0m[0m	[32m[1mDEBUG[22m[39m[0m[0m	[37m/$bunfs/pochi:112666[39m[0m[0m[1m[37m	MjpegToMp4[39m[22m[0m[0m	[ffmpeg] stderr:   libavfilter     9. 12.100 /  9. 12.100
[37m2026-07-17 14:19:17.337[39m[0m[0m	[32m[1mDEBUG[22m[39m[0m[0m	[37m/$bunfs/pochi:112666[39m[0m[0m[1m[37m	MjpegToMp4[39m[22m[0m[0m	[ffmpeg] stderr:   libswscale      7.  5.100 /  7.  5.100
[37m2026-07-17 14:19:17.337[39m[0m[0m	[32m[1mDEBUG[22m[39m[0m[0m	[37m/$bunfs/pochi:112666[39m[0m[0m[1m[37m	MjpegToMp4[39m[22m[0m[0m	[ffmpeg] stderr:   libswresample   4. 12.100 /  4. 12.100
[37m2026-07-17 14:19:17.337[39m[0m[0m	[32m[1mDEBUG[22m[39m[0m[0m	[37m/$bunfs/pochi:112666[39m[0m[0m[1m[37m	MjpegToMp4[39m[22m[0m[0m	[ffmpeg] stderr:   libpostproc    57.  3.100 / 57.  3.100
[37m2026-07-17 14:19:17.337[39m[0m[0m	[32m[1mDEBUG[22m[39m[0m[0m	[37m/$bunfs/pochi:112666[39m[0m[0m[1m[37m	MjpegToMp4[39m[22m[0m[0m	[ffmpeg] stderr: Input #0, concat, from '/tmp/pochi-mjpeg2mp4-cRjFmw/frames.ffconcat':
[37m2026-07-17 14:19:17.337[39m[0m[0m	[32m[1mDEBUG[22m[39m[0m[0m	[37m/$bunfs/pochi:112666[39m[0m[0m[1m[37m	MjpegToMp4[39m[22m[0m[0m	[ffmpeg] stderr:   Duration: N/A, start: 0.000000, bitrate: N/A
[37m2026-07-17 14:19:17.337[39m[0m[0m	[32m[1mDEBUG[22m[39m[0m[0m	[37m/$bunfs/pochi:112666[39m[0m[0m[1m[37m	MjpegToMp4[39m[22m[0m[0m	[ffmpeg] stderr:   Stream #0:0: Video: mjpeg (Baseline), yuvj420p(pc, bt470bg/unknown/unknown), 1280x720 [SAR 1:1 DAR 16:9], 25 fps, 25 tbr, 25 tbn
[37m2026-07-17 14:19:17.337[39m[0m[0m	[32m[1mDEBUG[22m[39m[0m[0m	[37m/$bunfs/pochi:112666[39m[0m[0m[1m[37m	MjpegToMp4[39m[22m[0m[0m	[ffmpeg] stderr: Stream mapping:
[37m2026-07-17 14:19:17.338[39m[0m[0m	[32m[1mDEBUG[22m[39m[0m[0m	[37m/$bunfs/pochi:112666[39m[0m[0m[1m[37m	MjpegToMp4[39m[22m[0m[0m	[ffmpeg] stderr:   Stream #0:0 -> #0:0 (mjpeg (native) -> h264 (libx264))
[37m2026-07-17 14:19:17.338[39m[0m[0m	[32m[1mDEBUG[22m[39m[0m[0m	[37m/$bunfs/pochi:112666[39m[0m[0m[1m[37m	MjpegToMp4[39m[22m[0m[0m	[ffmpeg] stderr: Press [q] to stop, [?] for help
[37m2026-07-17 14:19:17.338[39m[0m[0m	[32m[1mDEBUG[22m[39m[0m[0m	[37m/$bunfs/pochi:112666[39m[0m[0m[1m[37m	MjpegToMp4[39m[22m[0m[0m	[ffmpeg] stderr: [swscaler @ 0x59e729bbaac0] deprecated pixel format used, make sure you did set range correctly
[37m2026-07-17 14:19:17.355[39m[0m[0m	[32m[1mDEBUG[22m[39m[0m[0m	[37m/$bunfs/pochi:112666[39m[0m[0m[1m[37m	MjpegToMp4[39m[22m[0m[0m	[ffmpeg] stderr:     Last message repeated 3 times
[37m2026-07-17 14:19:17.355[39m[0m[0m	[32m[1mDEBUG[22m[39m[0m[0m	[37m/$bunfs/pochi:112666[39m[0m[0m[1m[37m	MjpegToMp4[39m[22m[0m[0m	[ffmpeg] stderr: [libx264 @ 0x59e729b8aec0] using SAR=2560/2559
[37m2026-07-17 14:19:17.356[39m[0m[0m	[32m[1mDEBUG[22m[39m[0m[0m	[37m/$bunfs/pochi:112666[39m[0m[0m[1m[37m	MjpegToMp4[39m[22m[0m[0m	[ffmpeg] stderr: [libx264 @ 0x59e729b8aec0] using cpu capabilities: MMX2 SSE2Fast SSSE3 SSE4.2 AVX FMA3 BMI2 AVX2 AVX512
[37m2026-07-17 14:19:17.358[39m[0m[0m	[32m[1mDEBUG[22m[39m[0m[0m	[37m/$bunfs/pochi:112666[39m[0m[0m[1m[37m	MjpegToMp4[39m[22m[0m[0m	[ffmpeg] stderr: [libx264 @ 0x59e729b8aec0] profile High, level 3.0, 4:2:0, 8-bit
[37m2026-07-17 14:19:17.358[39m[0m[0m	[32m[1mDEBUG[22m[39m[0m[0m	[37m/$bunfs/pochi:112666[39m[0m[0m[1m[37m	MjpegToMp4[39m[22m[0m[0m	[ffmpeg] stderr: [libx264 @ 0x59e729b8aec0] 264 - core 164 r3108 31e19f9 - H.264/MPEG-4 AVC codec - Copyleft 2003-2023 - http://www.videolan.org/x264.html - options: cabac=1 ref=1 deblock=1:0:0 analyse=0x3:0x113 me=hex subme=2 psy=1 psy_rd=1.00:0.00 mixed_ref=0 me_range=16 chroma_me=1 trellis=0 8x8dct=1 cqm=0 deadzone=21,11 fast_pskip=1 chroma_qp_offset=0 threads=15 lookahead_threads=3 sliced_threads=0 nr=0 decimate=1 interlaced=0 bluray_compat=0 constrained_intra=0 bframes=3 b_pyramid=2 b_adapt=1 b_bias=0 direct=1 weightb=1 open_gop=0 weightp=1 keyint=250 keyint_min=25 scenecut=40 intra_refresh=0 rc_lookahead=10 rc=crf mbtree=1 crf=23.0 qcomp=0.60 qpmin=0 qpmax=69 qpstep=4 ip_ratio=1.40 aq=1:1.00
[37m2026-07-17 14:19:17.358[39m[0m[0m	[32m[1mDEBUG[22m[39m[0m[0m	[37m/$bunfs/pochi:112666[39m[0m[0m[1m[37m	MjpegToMp4[39m[22m[0m[0m	[ffmpeg] stderr: Output #0, mp4, to '/tmp/pochi-browser-agent-video-b84c28e4-08e5-4419-bb08-4f888dfd1016.mp4':
[37m2026-07-17 14:19:17.358[39m[0m[0m	[32m[1mDEBUG[22m[39m[0m[0m	[37m/$bunfs/pochi:112666[39m[0m[0m[1m[37m	MjpegToMp4[39m[22m[0m[0m	[ffmpeg] stderr:   Metadata:
[37m2026-07-17 14:19:17.358[39m[0m[0m	[32m[1mDEBUG[22m[39m[0m[0m	[37m/$bunfs/pochi:112666[39m[0m[0m[1m[37m	MjpegToMp4[39m[22m[0m[0m	[ffmpeg] stderr:     encoder         : Lavf60.16.100
[37m2026-07-17 14:19:17.358[39m[0m[0m	[32m[1mDEBUG[22m[39m[0m[0m	[37m/$bunfs/pochi:112666[39m[0m[0m[1m[37m	MjpegToMp4[39m[22m[0m[0m	[ffmpeg] stderr:   Stream #0:0: Video: h264 (avc1 / 0x31637661), yuv420p(tv, bt470bg/unknown/unknown, progressive), 854x480 [SAR 2560:2559 DAR 13664:7677], q=2-31, 25 fps, 12800 tbn
[37m2026-07-17 14:19:17.358[39m[0m[0m	[32m[1mDEBUG[22m[39m[0m[0m	[37m/$bunfs/pochi:112666[39m[0m[0m[1m[37m	MjpegToMp4[39m[22m[0m[0m	[ffmpeg] stderr:     Metadata:
[37m2026-07-17 14:19:17.358[39m[0m[0m	[32m[1mDEBUG[22m[39m[0m[0m	[37m/$bunfs/pochi:112666[39m[0m[0m[1m[37m	MjpegToMp4[39m[22m[0m[0m	[ffmpeg] stderr:       encoder         : Lavc60.31.102 libx264
[37m2026-07-17 14:19:17.358[39m[0m[0m	[32m[1mDEBUG[22m[39m[0m[0m	[37m/$bunfs/pochi:112666[39m[0m[0m[1m[37m	MjpegToMp4[39m[22m[0m[0m	[ffmpeg] stderr:     Side data:
[37m2026-07-17 14:19:17.358[39m[0m[0m	[32m[1mDEBUG[22m[39m[0m[0m	[37m/$bunfs/pochi:112666[39m[0m[0m[1m[37m	MjpegToMp4[39m[22m[0m[0m	[ffmpeg] stderr:       cpb: bitrate max/min/avg: 0/0/0 buffer size: 0 vbv_delay: N/A
[37m2026-07-17 14:19:17.359[39m[0m[0m	[32m[1mDEBUG[22m[39m[0m[0m	[37m/$bunfs/pochi:112666[39m[0m[0m[1m[37m	MjpegToMp4[39m[22m[0m[0m	[ffmpeg] stderr: frame=    0 fps=0.0 q=0.0 size=       0kB time=N/A bitrate=N/A speed=N/A    
[37m2026-07-17 14:19:18.316[39m[0m[0m	[32m[1mDEBUG[22m[39m[0m[0m	[37m/$bunfs/pochi:112666[39m[0m[0m[1m[37m	MjpegToMp4[39m[22m[0m[0m	[ffmpeg] stderr: frame=  271 fps=0.0 q=28.0 size=       0kB time=00:00:10.76 bitrate=   0.0kbits/s dup=282 drop=7 speed=  11x    
[37m2026-07-17 14:19:19.024[39m[0m[0m	[32m[1mDEBUG[22m[39m[0m[0m	[37m/$bunfs/pochi:112666[39m[0m[0m[1m[37m	MjpegToMp4[39m[22m[0m[0m	[ffmpeg] stderr: frame=  524 fps=311 q=28.0 size=       0kB time=00:00:20.88 bitrate=   0.0kbits/s dup=532 drop=7 speed=12.4x    
[37m2026-07-17 14:19:19.518[39m[0m[0m	[32m[1mDEBUG[22m[39m[0m[0m	[37m/$bunfs/pochi:112666[39m[0m[0m[1m[37m	MjpegToMp4[39m[22m[0m[0m	[ffmpeg] stderr: [mp4 @ 0x59e729b88c00] Starting second pass: moving the moov atom to the beginning of the file
[37m2026-07-17 14:19:19.518[39m[0m[0m	[32m[1mDEBUG[22m[39m[0m[0m	[37m/$bunfs/pochi:112666[39m[0m[0m[1m[37m	MjpegToMp4[39m[22m[0m[0m	[ffmpeg] stderr: [out#0/mp4 @ 0x59e729b89400] video:98kB audio:0kB subtitle:0kB other streams:0kB global headers:0kB muxing overhead: 8.982884%
[37m2026-07-17 14:19:19.518[39m[0m[0m	[32m[1mDEBUG[22m[39m[0m[0m	[37m/$bunfs/pochi:112666[39m[0m[0m[1m[37m	MjpegToMp4[39m[22m[0m[0m	[ffmpeg] stderr: frame=  680 fps=311 q=-1.0 Lsize=     107kB time=00:00:27.08 bitrate=  32.3kbits/s dup=642 drop=10 speed=12.4x    
[37m2026-07-17 14:19:19.519[39m[0m[0m	[32m[1mDEBUG[22m[39m[0m[0m	[37m/$bunfs/pochi:112666[39m[0m[0m[1m[37m	MjpegToMp4[39m[22m[0m[0m	[ffmpeg] stderr: [libx264 @ 0x59e729b8aec0] frame I:3     Avg QP:14.61  size: 15927
[37m2026-07-17 14:19:19.519[39m[0m[0m	[32m[1mDEBUG[22m[39m[0m[0m	[37m/$bunfs/pochi:112666[39m[0m[0m[1m[37m	MjpegToMp4[39m[22m[0m[0m	[ffmpeg] stderr: [libx264 @ 0x59e729b8aec0] frame P:171   Avg QP:11.36  size:   224
[37m2026-07-17 14:19:19.519[39m[0m[0m	[32m[1mDEBUG[22m[39m[0m[0m	[37m/$bunfs/pochi:112666[39m[0m[0m[1m[37m	MjpegToMp4[39m[22m[0m[0m	[ffmpeg] stderr: [libx264 @ 0x59e729b8aec0] frame B:506   Avg QP:12.71  size:    27
[37m2026-07-17 14:19:19.519[39m[0m[0m	[32m[1mDEBUG[22m[39m[0m[0m	[37m/$bunfs/pochi:112666[39m[0m[0m[1m[37m	MjpegToMp4[39m[22m[0m[0m	[ffmpeg] stderr: [libx264 @ 0x59e729b8aec0] consecutive B-frames:  0.6%  0.0%  1.8% 97.6%
[37m2026-07-17 14:19:19.519[39m[0m[0m	[32m[1mDEBUG[22m[39m[0m[0m	[37m/$bunfs/pochi:112666[39m[0m[0m[1m[37m	MjpegToMp4[39m[22m[0m[0m	[ffmpeg] stderr: [libx264 @ 0x59e729b8aec0] mb I  I16..4: 80.4%  0.7% 18.9%
[37m2026-07-17 14:19:19.519[39m[0m[0m	[32m[1mDEBUG[22m[39m[0m[0m	[37m/$bunfs/pochi:112666[39m[0m[0m[1m[37m	MjpegToMp4[39m[22m[0m[0m	[ffmpeg] stderr: [libx264 @ 0x59e729b8aec0] mb P  I16..4:  0.1%  0.0%  0.0%  P16..4:  0.3%  0.1%  0.1%  0.0%  0.0%    skip:99.4%
[37m2026-07-17 14:19:19.519[39m[0m[0m	[32m[1mDEBUG[22m[39m[0m[0m	[37m/$bunfs/pochi:112666[39m[0m[0m[1m[37m	MjpegToMp4[39m[22m[0m[0m	[ffmpeg] stderr: [libx264 @ 0x59e729b8aec0] mb B  I16..4:  0.0%  0.0%  0.0%  B16..8:  0.2%  0.0%  0.0%  direct: 0.0%  skip:99.8%  L0:48.4% L1:51.1% BI: 0.4%
[37m2026-07-17 14:19:19.519[39m[0m[0m	[32m[1mDEBUG[22m[39m[0m[0m	[37m/$bunfs/pochi:112666[39m[0m[0m[1m[37m	MjpegToMp4[39m[22m[0m[0m	[ffmpeg] stderr: [libx264 @ 0x59e729b8aec0] 8x8 transform intra:1.4% inter:11.8%
[37m2026-07-17 14:19:19.519[39m[0m[0m	[32m[1mDEBUG[22m[39m[0m[0m	[37m/$bunfs/pochi:112666[39m[0m[0m[1m[37m	MjpegToMp4[39m[22m[0m[0m	[ffmpeg] stderr: [libx264 @ 0x59e729b8aec0] coded y,uvDC,uvAC intra: 14.8% 14.7% 14.4% inter: 0.1% 0.0% 0.0%
[37m2026-07-17 14:19:19.519[39m[0m[0m	[32m[1mDEBUG[22m[39m[0m[0m	[37m/$bunfs/pochi:112666[39m[0m[0m[1m[37m	MjpegToMp4[39m[22m[0m[0m	[ffmpeg] stderr: [libx264 @ 0x59e729b8aec0] i16 v,h,dc,p: 49% 47%  4%  0%
[37m2026-07-17 14:19:19.519[39m[0m[0m	[32m[1mDEBUG[22m[39m[0m[0m	[37m/$bunfs/pochi:112666[39m[0m[0m[1m[37m	MjpegToMp4[39m[22m[0m[0m	[ffmpeg] stderr: [libx264 @ 0x59e729b8aec0] i8 v,h,dc,ddl,ddr,vr,hd,vl,hu: 24% 50% 16%  0%  1%  1%  4%  0%  3%
[37m2026-07-17 14:19:19.519[39m[0m[0m	[32m[1mDEBUG[22m[39m[0m[0m	[37m/$bunfs/pochi:112666[39m[0m[0m[1m[37m	MjpegToMp4[39m[22m[0m[0m	[ffmpeg] stderr: [libx264 @ 0x59e729b8aec0] i4 v,h,dc,ddl,ddr,vr,hd,vl,hu: 32% 41% 10%  2%  2%  2%  4%  2%  4%
[37m2026-07-17 14:19:19.519[39m[0m[0m	[32m[1mDEBUG[22m[39m[0m[0m	[37m/$bunfs/pochi:112666[39m[0m[0m[1m[37m	MjpegToMp4[39m[22m[0m[0m	[ffmpeg] stderr: [libx264 @ 0x59e729b8aec0] i8c dc,h,v,p: 92%  2%  7%  0%
[37m2026-07-17 14:19:19.519[39m[0m[0m	[32m[1mDEBUG[22m[39m[0m[0m	[37m/$bunfs/pochi:112666[39m[0m[0m[1m[37m	MjpegToMp4[39m[22m[0m[0m	[ffmpeg] stderr: [libx264 @ 0x59e729b8aec0] Weighted P-Frames: Y:0.0% UV:0.0%
[37m2026-07-17 14:19:19.519[39m[0m[0m	[32m[1mDEBUG[22m[39m[0m[0m	[37m/$bunfs/pochi:112666[39m[0m[0m[1m[37m	MjpegToMp4[39m[22m[0m[0m	[ffmpeg] stderr: [libx264 @ 0x59e729b8aec0] kb/s:29.30
[37m2026-07-17 14:19:19.538[39m[0m[0m	[32m[1mDEBUG[22m[39m[0m[0m	[37m/$bunfs/pochi:112666[39m[0m[0m[1m[37m	MjpegToMp4[39m[22m[0m[0m	[ffmpeg] stderr: 
[37m2026-07-17 14:19:19.538[39m[0m[0m	[32m[1mDEBUG[22m[39m[0m[0m	[37mevents:98[39m[0m[0m[1m[37m	MjpegToMp4[39m[22m[0m[0m	[ffmpeg] end
[37m2026-07-17 14:19:24.456[39m[0m[0m	[32m[1mDEBUG[22m[39m[0m[0m	[37mnative:7[39m[0m[0m[1m[37m	Pochi[39m[22m[0m[0m	Task runner finished successfully.
[37m2026-07-17 14:19:24.457[39m[0m[0m	[32m[1mDEBUG[22m[39m[0m[0m	[37mnative:7[39m[0m[0m[1m[37m	Pochi[39m[22m[0m[0m	Shutting down...
[37m2026-07-17 14:19:24.476[39m[0m[0m	[32m[1mDEBUG[22m[39m[0m[0m	[37mnative:7[39m[0m[0m[1m[37m	Pochi[39m[22m[0m[0m	Shutdown completed. Process will exit.
[37m2026-07-17 14:19:24.476[39m[0m[0m	[32m[1mDEBUG[22m[39m[0m[0m	[37m[39m[0m[0m[1m[37m	Pochi[39m[22m[0m[0m	Process exiting with code 0
